<?xml version="1.0" standalone="no"?>
<!DOCTYPE svg PUBLIC "-//W3C//DTD SVG 20010904//EN"
 "http://www.w3.org/TR/2001/REC-SVG-20010904/DTD/svg10.dtd">
<svg version="1.0" xmlns="http://www.w3.org/2000/svg"
 width="2689.000000pt" height="1098.000000pt" viewBox="0 0 2689.000000 1098.000000"
 preserveAspectRatio="xMidYMid meet">
<metadata>
Created by potrace 1.16, written by Peter Selinger 2001-2019
</metadata>
<g transform="translate(0.000000,1098.000000) scale(0.100000,-0.100000)"
fill="#000000" stroke="none">
<path d="M762 10758 c-11 -29 -41 -107 -67 -173 -26 -66 -53 -137 -61 -157
l-13 -38 43 0 c44 0 44 0 62 50 l18 50 83 0 82 0 18 -50 c18 -50 18 -50 61
-50 54 0 57 -16 -42 230 l-74 185 -45 3 -45 3 -20 -53z m86 -110 c11 -29 23
-61 27 -70 6 -16 0 -18 -48 -18 l-56 0 19 53 c23 67 31 87 35 87 2 0 12 -24
23 -52z"/>
<path d="M1410 10775 c0 -34 1 -35 40 -35 39 0 40 1 40 35 0 34 -1 35 -40 35
-39 0 -40 -1 -40 -35z"/>
<path d="M4190 10600 l0 -210 40 0 40 0 0 210 0 210 -40 0 -40 0 0 -210z"/>
<path d="M5980 10775 c0 -34 1 -35 40 -35 39 0 40 1 40 35 0 34 -1 35 -40 35
-39 0 -40 -1 -40 -35z"/>
<path d="M6340 10738 l0 -71 -21 19 c-15 13 -36 19 -69 19 -63 0 -104 -36
-119 -105 -32 -148 68 -264 174 -202 28 17 35 18 35 7 0 -11 12 -15 40 -15
l40 0 0 210 0 210 -40 0 -40 0 0 -72z m-24 -109 c15 -16 19 -36 19 -86 0 -56
-3 -67 -24 -84 -46 -37 -87 -17 -102 49 -23 104 49 185 107 121z"/>
<path d="M2648 10782 c-21 -13 -28 -25 -28 -49 0 -26 -4 -33 -20 -33 -16 0
-20 -7 -20 -30 0 -23 4 -30 20 -30 19 0 20 -7 20 -106 0 -58 5 -114 10 -124
11 -21 67 -35 99 -25 31 10 29 55 -3 55 -28 0 -36 28 -36 131 l0 69 30 0 c27
0 30 3 30 30 0 27 -3 30 -30 30 -29 0 -30 1 -30 50 0 55 -2 56 -42 32z"/>
<path d="M5818 10782 c-22 -13 -28 -25 -28 -51 l0 -33 -55 7 c-50 6 -57 4 -80
-19 -23 -23 -25 -23 -25 -6 0 16 -7 20 -35 20 l-35 0 0 -155 0 -155 40 0 40 0
0 98 c0 116 14 148 61 138 23 -4 29 -1 38 22 6 17 10 21 10 10 1 -11 9 -18 21
-18 19 0 20 -7 20 -106 0 -58 5 -114 10 -124 11 -21 67 -35 99 -25 31 10 29
55 -3 55 -28 0 -36 28 -36 131 l0 69 30 0 c27 0 30 3 30 30 0 27 -3 30 -30 30
-29 0 -30 1 -30 50 0 55 -2 56 -42 32z"/>
<path d="M1125 10696 c-41 -18 -57 -39 -58 -81 -1 -49 32 -79 113 -102 52 -15
66 -23 68 -41 6 -41 -95 -42 -105 -1 -4 15 -11 19 -27 15 -11 -3 -29 -6 -38
-6 -27 0 -22 -28 10 -60 51 -50 154 -52 212 -3 25 20 30 32 30 67 0 55 -18 71
-111 99 -59 18 -74 27 -74 42 0 29 66 34 92 7 13 -14 27 -18 51 -15 36 6 39
13 16 48 -27 41 -119 57 -179 31z"/>
<path d="M1635 10701 c-73 -32 -103 -161 -57 -246 31 -60 100 -80 157 -47 l35
21 0 -32 c0 -48 -24 -77 -65 -77 -19 0 -38 6 -42 13 -4 8 -30 17 -56 20 -47 7
-48 6 -42 -16 4 -12 18 -33 31 -46 20 -22 32 -25 97 -25 140 -2 150 16 155
257 l4 177 -41 0 c-31 0 -41 -4 -41 -17 0 -15 -2 -15 -19 1 -23 20 -87 30
-116 17z m110 -71 c22 -24 30 -96 16 -133 -14 -36 -53 -54 -85 -39 -34 15 -51
78 -36 132 16 59 69 80 105 40z"/>
<path d="M2026 10685 c-34 -23 -36 -23 -36 -5 0 16 -7 20 -35 20 l-35 0 0
-155 0 -155 40 0 40 0 0 104 c0 89 3 107 21 130 23 29 60 34 79 11 8 -9 15
-60 18 -130 l5 -115 33 0 34 0 0 131 c0 72 -4 139 -10 149 -10 19 -59 40 -95
40 -12 0 -39 -11 -59 -25z"/>
<path d="M2343 10703 c-21 -4 -73 -56 -73 -73 0 -4 15 -10 33 -13 23 -3 37 1
50 14 21 23 70 25 87 4 21 -26 4 -41 -62 -55 -86 -19 -123 -54 -115 -112 8
-59 36 -83 96 -83 33 0 55 6 68 18 24 21 33 22 33 2 0 -11 11 -15 41 -15 35 0
40 2 34 18 -4 9 -9 67 -10 127 -1 61 -7 120 -13 132 -19 35 -92 51 -169 36z
m104 -200 c-4 -21 -15 -44 -24 -51 -40 -29 -101 7 -77 45 9 15 66 39 98 42 5
1 6 -16 3 -36z"/>
<path d="M3255 10685 c-23 -22 -25 -23 -25 -5 0 16 -7 20 -35 20 l-35 0 0
-155 0 -155 40 0 40 0 0 98 c0 116 14 148 61 138 25 -5 29 -2 40 31 9 29 9 37
-2 44 -25 16 -60 9 -84 -16z"/>
<path d="M3443 10703 c-21 -4 -73 -56 -73 -73 0 -4 15 -10 33 -13 23 -3 37 1
50 14 21 23 70 25 87 4 21 -26 4 -41 -62 -55 -86 -19 -123 -54 -115 -112 8
-59 36 -83 96 -83 33 0 55 6 68 18 24 21 33 22 33 2 0 -11 11 -15 41 -15 35 0
40 2 34 18 -4 9 -9 67 -10 127 -1 61 -7 120 -13 132 -19 35 -92 51 -169 36z
m104 -200 c-4 -21 -15 -44 -24 -51 -40 -29 -101 7 -77 45 9 15 66 39 98 42 5
1 6 -16 3 -36z"/>
<path d="M3755 10696 c-41 -18 -57 -39 -58 -81 -1 -49 32 -79 113 -102 52 -15
66 -23 68 -41 6 -41 -95 -42 -105 -1 -4 15 -11 19 -27 15 -11 -3 -29 -6 -38
-6 -27 0 -22 -28 10 -60 51 -50 154 -52 212 -3 25 20 30 32 30 67 0 55 -18 71
-111 99 -59 18 -74 27 -74 42 0 29 66 34 92 7 13 -14 27 -18 51 -15 36 6 39
13 16 48 -27 41 -119 57 -179 31z"/>
<path d="M4463 10691 c-27 -17 -33 -18 -33 -6 0 10 -11 15 -35 15 l-35 0 0
-155 0 -155 34 0 33 0 5 110 c6 120 19 150 64 150 36 0 44 -29 44 -149 l0
-111 40 0 40 0 0 108 c0 119 12 152 55 152 37 0 45 -28 45 -149 l0 -111 40 0
40 0 0 118 c0 145 -14 182 -74 197 -32 8 -45 6 -79 -13 -37 -20 -42 -21 -58
-6 -29 26 -89 28 -126 5z"/>
<path d="M5000 10703 c-8 -3 -25 -15 -37 -26 l-23 -20 0 21 c0 18 -6 22 -35
22 l-35 0 0 -215 0 -215 40 0 40 0 0 77 c0 74 1 76 19 59 28 -25 83 -31 119
-12 93 48 98 242 8 297 -30 19 -66 23 -96 12z m59 -79 c34 -43 26 -150 -13
-176 -22 -15 -55 -7 -75 18 -46 59 -16 184 44 184 14 0 32 -11 44 -26z"/>
<path d="M5293 10703 c-21 -4 -73 -56 -73 -73 0 -4 15 -10 33 -13 23 -3 37 1
50 14 21 23 70 25 87 4 21 -26 4 -41 -62 -55 -86 -19 -123 -54 -115 -112 8
-59 36 -83 96 -83 33 0 55 6 68 18 24 21 33 22 33 2 0 -11 11 -15 41 -15 35 0
40 2 34 18 -4 9 -9 67 -10 127 -1 61 -7 120 -13 132 -19 35 -92 51 -169 36z
m104 -200 c-4 -21 -15 -44 -24 -51 -40 -29 -101 7 -77 45 9 15 66 39 98 42 5
1 6 -16 3 -36z"/>
<path d="M6553 10703 c-21 -4 -73 -56 -73 -73 0 -4 15 -10 33 -13 23 -3 37 1
50 14 21 23 70 25 87 4 21 -26 4 -41 -62 -55 -86 -19 -123 -54 -115 -112 8
-59 36 -83 96 -83 33 0 55 6 68 18 24 21 33 22 33 2 0 -11 11 -15 41 -15 35 0
40 2 34 18 -4 9 -9 67 -10 127 -1 61 -7 120 -13 132 -19 35 -92 51 -169 36z
m104 -200 c-4 -21 -15 -44 -24 -51 -40 -29 -101 7 -77 45 9 15 66 39 98 42 5
1 6 -16 3 -36z"/>
<path d="M6865 10696 c-41 -18 -57 -39 -58 -81 -1 -49 32 -79 113 -102 52 -15
66 -23 68 -41 6 -41 -95 -42 -105 -1 -4 15 -11 19 -27 15 -11 -3 -29 -6 -38
-6 -27 0 -22 -28 10 -60 51 -50 154 -52 212 -3 25 20 30 32 30 67 0 55 -18 71
-111 99 -59 18 -74 27 -74 42 0 29 66 34 92 7 13 -14 27 -18 51 -15 36 6 39
13 16 48 -27 41 -119 57 -179 31z"/>
<path d="M1410 10545 l0 -155 40 0 40 0 0 155 0 155 -40 0 -40 0 0 -155z"/>
<path d="M2802 10565 c3 -124 5 -136 26 -157 33 -33 110 -32 146 1 26 24 26
24 26 3 0 -18 6 -22 35 -22 l35 0 0 155 0 155 -40 0 -40 0 0 -114 c0 -107 -1
-116 -22 -130 -29 -20 -52 -20 -72 0 -13 12 -16 39 -16 130 l0 114 -41 0 -41
0 4 -135z"/>
<path d="M5980 10545 l0 -155 40 0 40 0 0 155 0 155 -40 0 -40 0 0 -155z"/>
<path d="M660 9970 l0 -182 100 4 c112 4 141 18 172 79 24 46 24 152 0 198
-31 61 -60 75 -172 79 l-100 4 0 -182z m191 130 c69 -38 69 -222 0 -260 -11
-5 -47 -10 -80 -10 l-61 0 0 140 0 140 61 0 c33 0 69 -5 80 -10z"/>
<path d="M2570 9970 l0 -180 25 0 25 0 0 180 0 180 -25 0 -25 0 0 -180z"/>
<path d="M3600 10130 c0 -15 7 -20 25 -20 18 0 25 5 25 20 0 15 -7 20 -25 20
-18 0 -25 -5 -25 -20z"/>
<path d="M3960 9970 l0 -180 25 0 25 0 0 180 0 180 -25 0 -25 0 0 -180z"/>
<path d="M4900 10090 l0 -60 -34 17 c-74 35 -146 -23 -146 -119 0 -60 21 -103
60 -123 37 -19 70 -19 98 1 20 14 22 14 22 0 0 -9 9 -16 20 -16 19 0 20 7 20
180 0 173 -1 180 -20 180 -18 0 -20 -7 -20 -60z m-21 -96 c29 -37 29 -110 -1
-141 -26 -28 -58 -29 -89 -4 -20 16 -24 29 -24 74 0 40 5 61 19 76 27 30 70
27 95 -5z"/>
<path d="M5430 9970 l0 -180 25 0 25 0 0 180 0 180 -25 0 -25 0 0 -180z"/>
<path d="M2033 10123 c-7 -2 -13 -20 -13 -39 0 -24 -5 -34 -15 -34 -8 0 -15
-9 -15 -20 0 -11 7 -20 15 -20 12 0 15 -17 15 -93 0 -78 3 -97 18 -110 27 -25
72 -22 72 3 0 13 -7 20 -19 20 -26 0 -31 19 -31 106 0 72 1 74 25 74 18 0 25
5 25 20 0 15 -7 20 -25 20 -22 0 -25 4 -25 40 0 40 -3 43 -27 33z"/>
<path d="M1352 10044 c-12 -8 -22 -10 -22 -5 0 6 -9 11 -20 11 -19 0 -20 -7
-20 -130 l0 -130 25 0 c25 0 25 0 25 99 0 111 12 138 57 126 27 -6 45 21 22
36 -21 13 -42 11 -67 -7z"/>
<path d="M1504 10046 c-42 -19 -58 -58 -28 -70 10 -4 23 3 36 19 33 43 125 27
116 -21 -2 -15 -17 -21 -73 -30 -76 -13 -105 -36 -105 -84 0 -43 33 -65 95
-64 29 0 60 6 69 13 13 11 17 11 22 -3 3 -9 14 -16 23 -16 16 0 17 11 13 113
-3 91 -7 116 -22 131 -24 24 -104 31 -146 12z m126 -150 c0 -51 -88 -86 -124
-50 -24 23 -4 52 42 59 20 4 44 8 52 10 8 1 18 3 23 4 4 0 7 -10 7 -23z"/>
<path d="M1820 10053 c-8 -3 -23 -12 -32 -21 -16 -14 -18 -13 -18 1 0 10 -8
17 -20 17 -19 0 -20 -7 -20 -130 l0 -130 25 0 c25 0 25 0 25 95 0 82 3 98 20
115 24 24 63 26 84 4 12 -12 16 -38 16 -115 0 -92 1 -99 20 -99 19 0 20 7 20
109 0 89 -3 113 -17 130 -18 22 -75 35 -103 24z"/>
<path d="M2202 10045 c-57 -25 -81 -129 -46 -196 32 -64 151 -77 194 -22 24
31 25 39 5 47 -8 3 -25 -5 -39 -19 -25 -24 -58 -31 -91 -19 -14 6 -45 53 -45
69 0 3 45 5 100 5 l101 0 -7 38 c-4 20 -10 44 -14 52 -26 51 -99 72 -158 45z
m108 -45 c39 -39 27 -50 -54 -50 -70 0 -74 1 -69 20 13 48 87 66 123 30z"/>
<path d="M2733 10046 c-40 -18 -63 -62 -63 -121 0 -60 23 -103 65 -121 100
-41 183 26 173 138 -9 90 -94 140 -175 104z m106 -50 c17 -18 23 -36 23 -71 0
-82 -66 -122 -123 -76 -20 16 -24 28 -24 76 0 48 4 60 24 76 32 26 73 24 100
-5z"/>
<path d="M2993 10046 c-37 -17 -51 -55 -35 -91 8 -17 30 -29 83 -46 78 -26 89
-37 64 -63 -26 -25 -80 -21 -103 9 -13 16 -26 23 -36 19 -39 -15 1 -69 58 -80
92 -17 162 48 126 116 -6 10 -38 27 -80 39 -54 17 -70 26 -70 40 0 35 70 43
96 12 10 -11 24 -16 35 -14 24 7 24 15 2 42 -24 28 -96 37 -140 17z"/>
<path d="M3402 10045 c-56 -25 -79 -116 -47 -191 27 -64 128 -83 180 -34 24
23 39 60 25 60 -5 0 -15 3 -24 6 -10 4 -16 1 -16 -8 0 -21 -33 -48 -59 -48
-36 0 -59 18 -71 56 -31 94 52 175 113 111 21 -22 57 -26 57 -7 0 5 -10 21
-23 35 -27 33 -88 42 -135 20z"/>
<path d="M3762 10045 c-56 -25 -79 -116 -47 -191 27 -64 128 -83 180 -34 24
23 39 60 25 60 -5 0 -15 3 -24 6 -10 4 -16 1 -16 -8 0 -21 -33 -48 -59 -48
-36 0 -59 18 -71 56 -31 94 52 175 113 111 21 -22 57 -26 57 -7 0 5 -10 21
-23 35 -27 33 -88 42 -135 20z"/>
<path d="M4123 10046 c-40 -18 -63 -62 -63 -121 0 -60 23 -103 65 -121 100
-41 183 26 173 138 -9 90 -94 140 -175 104z m106 -50 c17 -18 23 -36 23 -71 0
-82 -66 -122 -123 -76 -20 16 -24 28 -24 76 0 48 4 60 24 76 32 26 73 24 100
-5z"/>
<path d="M4383 10046 c-37 -17 -51 -55 -35 -91 8 -17 30 -29 83 -46 78 -26 89
-37 64 -63 -26 -25 -80 -21 -103 9 -13 16 -26 23 -36 19 -39 -15 1 -69 58 -80
92 -17 162 48 126 116 -6 10 -38 27 -80 39 -54 17 -70 26 -70 40 0 35 70 43
96 12 10 -11 24 -16 35 -14 24 7 24 15 2 42 -24 28 -96 37 -140 17z"/>
<path d="M5062 10045 c-57 -25 -81 -129 -46 -196 32 -64 151 -77 194 -22 24
31 25 39 5 47 -8 3 -25 -5 -39 -19 -25 -24 -58 -31 -91 -19 -14 6 -45 53 -45
69 0 3 45 5 100 5 l101 0 -7 38 c-4 20 -10 44 -14 52 -26 51 -99 72 -158 45z
m108 -45 c39 -39 27 -50 -54 -50 -70 0 -74 1 -69 20 13 48 87 66 123 30z"/>
<path d="M5584 10046 c-42 -19 -58 -58 -28 -70 10 -4 23 3 36 19 33 43 125 27
116 -21 -2 -15 -17 -21 -73 -30 -76 -13 -105 -36 -105 -84 0 -43 33 -65 95
-64 29 0 60 6 69 13 13 11 17 11 22 -3 3 -9 14 -16 23 -16 16 0 17 11 13 113
-3 91 -7 116 -22 131 -24 24 -104 31 -146 12z m126 -150 c0 -51 -88 -86 -124
-50 -24 23 -4 52 42 59 20 4 44 8 52 10 8 1 18 3 23 4 4 0 7 -10 7 -23z"/>
<path d="M6012 10045 c-56 -25 -79 -116 -47 -191 27 -64 128 -83 180 -34 24
23 39 60 25 60 -5 0 -15 3 -24 6 -10 4 -16 1 -16 -8 0 -21 -33 -48 -59 -48
-36 0 -59 18 -71 56 -31 94 52 175 113 111 21 -22 57 -26 57 -7 0 5 -10 21
-23 35 -27 33 -88 42 -135 20z"/>
<path d="M6254 10046 c-42 -19 -58 -58 -28 -70 10 -4 23 3 36 19 33 43 125 27
116 -21 -2 -15 -17 -21 -73 -30 -76 -13 -105 -36 -105 -84 0 -43 33 -65 95
-64 29 0 60 6 69 13 13 11 17 11 22 -3 3 -9 14 -16 23 -16 16 0 17 11 13 113
-3 91 -7 116 -22 131 -24 24 -104 31 -146 12z m126 -150 c0 -51 -88 -86 -124
-50 -24 23 -4 52 42 59 20 4 44 8 52 10 8 1 18 3 23 4 4 0 7 -10 7 -23z"/>
<path d="M6552 10044 c-12 -8 -22 -10 -22 -5 0 6 -9 11 -20 11 -19 0 -20 -7
-20 -130 l0 -130 25 0 c25 0 25 0 25 99 0 111 12 138 57 126 27 -6 45 21 22
36 -21 13 -42 11 -67 -7z"/>
<path d="M6712 10044 c-12 -8 -22 -10 -22 -5 0 6 -9 11 -20 11 -19 0 -20 -7
-20 -130 l0 -130 25 0 c25 0 25 0 25 99 0 111 12 138 57 126 27 -6 45 21 22
36 -21 13 -42 11 -67 -7z"/>
<path d="M6872 10045 c-57 -25 -81 -129 -46 -196 32 -64 151 -77 194 -22 24
31 25 39 5 47 -8 3 -25 -5 -39 -19 -25 -24 -58 -31 -91 -19 -14 6 -45 53 -45
69 0 3 45 5 100 5 l101 0 -7 38 c-4 20 -10 44 -14 52 -26 51 -99 72 -158 45z
m108 -45 c39 -39 27 -50 -54 -50 -70 0 -74 1 -69 20 13 48 87 66 123 30z"/>
<path d="M7162 10044 c-12 -8 -22 -10 -22 -5 0 6 -9 11 -20 11 -19 0 -20 -7
-20 -130 l0 -130 25 0 c25 0 25 0 25 99 0 111 12 138 57 126 27 -6 45 21 22
36 -21 13 -42 11 -67 -7z"/>
<path d="M7304 10046 c-42 -19 -58 -58 -28 -70 10 -4 23 3 36 19 33 43 125 27
116 -21 -2 -15 -17 -21 -73 -30 -76 -13 -105 -36 -105 -84 0 -43 33 -65 95
-64 29 0 60 6 69 13 13 11 17 11 22 -3 3 -9 14 -16 23 -16 16 0 17 11 13 113
-3 91 -7 116 -22 131 -24 24 -104 31 -146 12z m126 -150 c0 -51 -88 -86 -124
-50 -24 23 -4 52 42 59 20 4 44 8 52 10 8 1 18 3 23 4 4 0 7 -10 7 -23z"/>
<path d="M1010 9955 c0 -52 5 -105 11 -118 22 -48 89 -61 133 -26 l26 20 0
-20 c0 -14 6 -21 20 -21 19 0 20 7 20 130 0 123 -1 130 -20 130 -18 0 -20 -7
-20 -84 0 -97 -20 -136 -69 -136 -44 0 -51 15 -51 122 0 98 0 98 -25 98 -25 0
-25 0 -25 -95z"/>
<path d="M3600 9920 l0 -130 25 0 25 0 0 130 0 130 -25 0 -25 0 0 -130z"/>
<path d="M13647 7225 c-16 -33 -16 -35 1 -35 10 0 28 10 39 23 36 39 37 47 5
47 -23 0 -32 -7 -45 -35z"/>
<path d="M14978 7244 c-35 -18 -48 -43 -48 -89 0 -48 33 -78 113 -100 79 -22
107 -39 107 -69 0 -38 -35 -61 -92 -61 -42 0 -53 4 -74 28 -13 15 -24 35 -24
43 0 8 -10 14 -26 14 -24 0 -25 -3 -19 -27 10 -43 30 -69 68 -87 72 -33 174
-11 202 45 39 75 -6 135 -123 164 -57 13 -76 23 -84 40 -15 33 5 63 47 71 50
9 84 -3 103 -36 11 -19 25 -30 40 -30 26 0 26 1 8 44 -24 58 -132 86 -198 50z"/>
<path d="M10350 7070 l0 -180 135 0 c128 0 135 1 135 20 0 19 -7 20 -110 20
l-110 0 0 65 0 65 100 0 c93 0 100 1 100 20 0 19 -7 20 -100 20 l-100 0 0 55
0 55 105 0 c98 0 105 1 105 20 0 19 -7 20 -130 20 l-130 0 0 -180z"/>
<path d="M10670 7070 l0 -180 25 0 25 0 0 180 0 180 -25 0 -25 0 0 -180z"/>
<path d="M11450 7230 c0 -15 7 -20 25 -20 18 0 25 5 25 20 0 15 -7 20 -25 20
-18 0 -25 -5 -25 -20z"/>
<path d="M12240 7071 c0 -174 1 -181 20 -181 18 0 20 8 22 153 l3 152 49 -153
c47 -144 51 -153 73 -150 22 3 30 19 73 148 l48 145 1 -147 1 -148 25 0 25 0
0 181 0 180 -37 -3 -37 -3 -46 -142 c-25 -78 -47 -142 -50 -142 -3 0 -25 64
-50 142 l-46 142 -37 3 -37 3 0 -180z"/>
<path d="M13450 7230 c0 -15 7 -20 25 -20 18 0 25 5 25 20 0 15 -7 20 -25 20
-18 0 -25 -5 -25 -20z"/>
<path d="M14280 7070 c0 -173 1 -180 20 -180 19 0 20 7 20 180 0 173 -1 180
-20 180 -19 0 -20 -7 -20 -180z"/>
<path d="M11338 7226 c-11 -8 -18 -26 -18 -45 0 -21 -5 -31 -15 -31 -8 0 -15
-9 -15 -20 0 -11 7 -20 15 -20 12 0 15 -17 15 -94 0 -106 10 -126 61 -126 22
0 29 5 29 20 0 13 -7 20 -20 20 -19 0 -20 7 -20 90 0 83 1 90 20 90 13 0 20 7
20 20 0 13 -7 20 -20 20 -17 0 -20 7 -20 45 0 48 -5 52 -32 31z"/>
<path d="M10828 7144 c-37 -20 -58 -63 -58 -119 0 -86 47 -135 129 -135 63 0
131 69 86 86 -9 4 -25 -4 -40 -20 -38 -42 -105 -28 -124 25 l-10 29 100 0
c111 0 115 3 85 74 -29 68 -104 95 -168 60z m95 -35 c25 -14 37 -28 37 -46 0
-9 -21 -13 -70 -13 -73 0 -84 8 -57 42 22 28 56 34 90 17z"/>
<path d="M11108 7144 c-37 -20 -58 -63 -58 -119 0 -84 47 -135 124 -135 62 0
132 81 83 96 -13 4 -23 2 -25 -6 -16 -48 -78 -64 -112 -30 -25 25 -30 102 -9
142 20 36 92 35 104 -3 5 -13 14 -19 28 -17 32 5 32 25 -1 58 -35 34 -87 40
-134 14z"/>
<path d="M11853 7140 c-43 -26 -53 -48 -53 -119 0 -52 4 -65 28 -92 35 -39
102 -50 151 -24 80 41 81 199 2 239 -41 21 -89 20 -128 -4z m111 -41 c22 -18
26 -28 26 -74 0 -46 -4 -56 -26 -74 -52 -41 -107 -16 -120 54 -16 89 55 145
120 94z"/>
<path d="M12698 7144 c-37 -20 -58 -63 -58 -119 0 -86 47 -135 129 -135 63 0
131 69 86 86 -9 4 -25 -4 -40 -20 -38 -42 -105 -28 -124 25 l-10 29 100 0
c111 0 115 3 85 74 -29 68 -104 95 -168 60z m95 -35 c25 -14 37 -28 37 -46 0
-9 -21 -13 -70 -13 -73 0 -84 8 -57 42 22 28 56 34 90 17z"/>
<path d="M12986 7139 c-21 -17 -26 -18 -26 -5 0 9 -8 16 -20 16 -19 0 -20 -7
-20 -130 l0 -130 25 0 c25 0 25 0 25 95 0 82 3 98 20 115 27 27 65 26 84 -2
12 -16 16 -47 16 -115 0 -86 1 -93 20 -93 19 0 20 7 20 114 0 112 -1 115 -26
135 -15 12 -41 21 -59 21 -18 0 -44 -9 -59 -21z"/>
<path d="M13248 7144 c-37 -20 -58 -63 -58 -119 0 -84 47 -135 124 -135 62 0
132 81 83 96 -13 4 -23 2 -25 -6 -16 -48 -78 -64 -112 -30 -25 25 -30 102 -9
142 20 36 92 35 104 -3 5 -13 14 -19 28 -17 32 5 32 25 -1 58 -35 34 -87 40
-134 14z"/>
<path d="M13608 7144 c-37 -20 -58 -63 -58 -119 0 -82 47 -135 120 -135 73 0
120 53 120 135 0 25 -7 59 -15 75 -28 55 -109 76 -167 44z m108 -47 c23 -20
27 -32 27 -72 0 -40 -4 -52 -27 -72 -31 -26 -44 -28 -81 -11 -53 24 -55 140
-2 166 34 17 54 14 83 -11z"/>
<path d="M13906 7139 c-21 -17 -26 -18 -26 -5 0 9 -8 16 -20 16 -19 0 -20 -7
-20 -130 l0 -130 25 0 c25 0 25 0 25 95 0 82 3 98 20 115 27 27 65 26 84 -2
12 -16 16 -47 16 -115 0 -86 1 -93 20 -93 19 0 20 7 20 114 0 112 -1 115 -26
135 -15 12 -41 21 -59 21 -18 0 -44 -9 -59 -21z"/>
<path d="M11450 7020 l0 -130 25 0 25 0 0 130 0 130 -25 0 -25 0 0 -130z"/>
<path d="M11540 7143 c0 -4 21 -62 47 -130 43 -116 48 -124 71 -121 21 3 29
17 68 123 24 66 44 123 44 128 0 4 -10 7 -23 7 -19 0 -27 -13 -56 -101 l-35
-102 -32 89 c-18 49 -33 95 -33 102 -1 12 -51 18 -51 5z"/>
<path d="M13450 7020 l0 -130 25 0 25 0 0 130 0 130 -25 0 -25 0 0 -130z"/>
<path d="M14525 7133 c50 -127 85 -230 85 -249 0 -29 -25 -54 -55 -54 -18 0
-22 -4 -18 -20 7 -28 54 -26 81 3 19 20 132 302 132 329 0 5 -10 8 -21 6 -17
-2 -29 -23 -57 -101 l-35 -99 -13 39 c-8 21 -23 66 -35 101 -18 54 -24 62 -46
62 -20 0 -24 -4 -18 -17z"/>
<path d="M15270 7130 c0 -16 7 -20 30 -20 23 0 30 4 30 20 0 16 -7 20 -30 20
-23 0 -30 -4 -30 -20z"/>
<path d="M15270 6910 c0 -16 7 -20 30 -20 23 0 30 4 30 20 0 16 -7 20 -30 20
-23 0 -30 -4 -30 -20z"/>
<path d="M12085 6630 c-19 -37 -19 -40 4 -40 10 0 31 16 45 35 l27 35 -30 0
c-24 0 -34 -7 -46 -30z"/>
<path d="M15027 6643 c-2 -10 -8 -26 -12 -35 -12 -31 29 -21 53 12 28 38 28
40 -7 40 -19 0 -30 -6 -34 -17z"/>
<path d="M10383 6487 c-34 -89 -65 -170 -69 -180 -6 -16 -2 -18 21 -15 24 3
31 11 45 53 l17 50 75 3 75 3 20 -53 c17 -44 25 -54 47 -56 14 -2 26 -1 26 3
0 5 -54 140 -137 343 -3 6 -17 12 -32 12 -24 0 -30 -10 -88 -163z m147 -44 c0
-2 -25 -3 -55 -3 -30 0 -55 3 -55 6 0 3 12 40 27 81 l26 75 29 -78 c15 -43 28
-79 28 -81z"/>
<path d="M13540 6470 l0 -180 25 0 25 0 0 180 0 180 -25 0 -25 0 0 -180z"/>
<path d="M15730 6630 c0 -15 7 -20 25 -20 18 0 25 5 25 20 0 15 -7 20 -25 20
-18 0 -25 -5 -25 -20z"/>
<path d="M10868 6626 c-11 -8 -18 -26 -18 -45 0 -21 -5 -31 -15 -31 -8 0 -15
-9 -15 -20 0 -11 7 -20 15 -20 12 0 15 -17 15 -94 0 -106 10 -126 61 -126 22
0 29 5 29 20 0 13 -7 20 -20 20 -19 0 -20 7 -20 90 0 83 1 90 20 90 13 0 20 7
20 20 0 13 -7 20 -20 20 -17 0 -20 7 -20 45 0 48 -5 52 -32 31z"/>
<path d="M13678 6626 c-11 -8 -18 -26 -18 -45 0 -21 -5 -31 -15 -31 -8 0 -15
-9 -15 -20 0 -11 7 -20 15 -20 12 0 15 -17 15 -94 0 -106 10 -126 61 -126 22
0 29 5 29 20 0 13 -7 20 -20 20 -19 0 -20 7 -20 90 0 83 1 90 20 90 13 0 20 7
20 20 0 13 -7 20 -20 20 -17 0 -20 7 -20 45 0 48 -5 52 -32 31z"/>
<path d="M14818 6626 c-11 -8 -18 -26 -18 -45 0 -21 -5 -31 -15 -31 -8 0 -15
-9 -15 -20 0 -11 7 -20 15 -20 12 0 15 -17 15 -94 0 -106 10 -126 61 -126 22
0 29 5 29 20 0 13 -7 20 -20 20 -19 0 -20 7 -20 90 0 83 1 90 20 90 13 0 20 7
20 20 0 13 -7 20 -20 20 -17 0 -20 7 -20 45 0 48 -5 52 -32 31z"/>
<path d="M4917 6585 c-16 -33 -16 -35 1 -35 10 0 28 10 39 23 36 39 37 47 5
47 -23 0 -32 -7 -45 -35z"/>
<path d="M8917 6585 c-16 -33 -16 -35 1 -35 10 0 28 10 39 23 36 39 37 47 5
47 -23 0 -32 -7 -45 -35z"/>
<path d="M2690 6430 c0 -173 1 -180 20 -180 19 0 20 7 20 180 0 173 -1 180
-20 180 -19 0 -20 -7 -20 -180z"/>
<path d="M3840 6549 l0 -60 -22 15 c-35 25 -83 20 -119 -12 -27 -24 -33 -37
-37 -85 -5 -65 9 -109 46 -137 30 -24 79 -26 110 -4 20 14 22 14 22 0 0 -9 9
-16 20 -16 19 0 20 7 20 180 0 173 -1 180 -20 180 -18 0 -20 -7 -20 -61z m-25
-94 c19 -18 25 -35 25 -70 0 -101 -100 -131 -130 -39 -22 67 9 134 63 134 10
0 29 -11 42 -25z"/>
<path d="M4720 6590 c0 -15 7 -20 25 -20 18 0 25 5 25 20 0 15 -7 20 -25 20
-18 0 -25 -5 -25 -20z"/>
<path d="M5940 6430 l0 -180 25 0 25 0 0 180 0 180 -25 0 -25 0 0 -180z"/>
<path d="M6490 6430 c0 -173 1 -180 20 -180 19 0 20 7 20 180 0 173 -1 180
-20 180 -19 0 -20 -7 -20 -180z"/>
<path d="M7810 6590 c0 -15 7 -20 25 -20 18 0 25 5 25 20 0 15 -7 20 -25 20
-18 0 -25 -5 -25 -20z"/>
<path d="M8720 6590 c0 -15 7 -20 25 -20 18 0 25 5 25 20 0 15 -7 20 -25 20
-18 0 -25 -5 -25 -20z"/>
<path d="M3108 6586 c-11 -8 -18 -26 -18 -45 0 -21 -5 -31 -15 -31 -8 0 -15
-9 -15 -20 0 -11 7 -20 15 -20 12 0 15 -17 15 -94 0 -106 10 -126 61 -126 22
0 29 5 29 20 0 13 -7 20 -20 20 -19 0 -20 7 -20 90 0 83 1 90 20 90 13 0 20 7
20 20 0 13 -7 20 -20 20 -17 0 -20 7 -20 45 0 48 -5 52 -32 31z"/>
<path d="M7698 6586 c-11 -8 -18 -26 -18 -45 0 -21 -5 -31 -15 -31 -8 0 -15
-9 -15 -20 0 -11 7 -20 15 -20 12 0 15 -17 15 -94 0 -106 10 -126 61 -126 22
0 29 5 29 20 0 13 -7 20 -20 20 -19 0 -20 7 -20 90 0 83 1 90 20 90 13 0 20 7
20 20 0 13 -7 20 -20 20 -17 0 -20 7 -20 45 0 48 -5 52 -32 31z"/>
<path d="M10728 6543 c-11 -11 -18 -13 -18 -5 0 7 -9 12 -20 12 -19 0 -20 -7
-20 -130 l0 -130 25 0 c25 0 25 0 25 93 0 107 14 139 58 135 21 -2 27 1 27 17
0 27 -53 33 -77 8z"/>
<path d="M11028 6544 c-37 -20 -58 -63 -58 -119 0 -86 47 -135 129 -135 63 0
131 69 86 86 -9 4 -25 -4 -40 -20 -38 -42 -105 -28 -124 25 l-10 29 100 0
c111 0 115 3 85 74 -29 68 -104 95 -168 60z m95 -35 c25 -14 37 -28 37 -46 0
-9 -21 -13 -70 -13 -73 0 -84 8 -57 42 22 28 56 34 90 17z"/>
<path d="M11295 6548 c-48 -26 -59 -74 -25 -108 11 -11 47 -27 79 -36 33 -10
62 -22 65 -29 7 -20 -9 -35 -47 -42 -29 -4 -40 -1 -62 21 -28 28 -40 32 -50
16 -11 -18 6 -50 35 -65 73 -38 169 -2 170 63 0 44 -18 61 -90 83 -53 16 -70
25 -70 39 0 35 71 42 94 9 15 -22 46 -23 53 -2 3 7 -7 24 -21 38 -19 19 -35
25 -68 25 -24 0 -52 -6 -63 -12z"/>
<path d="M11549 6545 c-14 -7 -30 -25 -37 -39 -17 -38 18 -45 52 -11 35 35 99
31 112 -7 8 -26 6 -27 -65 -39 -78 -14 -111 -39 -111 -84 0 -63 84 -97 152
-61 23 12 27 12 32 0 3 -8 14 -14 24 -14 18 0 19 7 15 113 -4 103 -7 114 -29
135 -29 26 -103 30 -145 7z m117 -180 c-29 -45 -116 -45 -116 0 0 26 2 26 85
43 46 9 56 -4 31 -43z"/>
<path d="M11856 6539 c-21 -17 -26 -18 -26 -5 0 9 -8 16 -20 16 -19 0 -20 -7
-20 -130 l0 -130 25 0 c25 0 25 0 25 95 0 82 3 98 20 115 27 27 65 26 84 -2
12 -16 16 -47 16 -115 0 -86 1 -93 20 -93 19 0 20 7 20 114 0 112 -1 115 -26
135 -15 12 -41 21 -59 21 -18 0 -44 -9 -59 -21z"/>
<path d="M12239 6545 c-14 -7 -30 -25 -37 -39 -17 -38 18 -45 52 -11 35 35 99
31 112 -7 8 -26 6 -27 -65 -39 -78 -14 -111 -39 -111 -84 0 -63 84 -97 152
-61 23 12 27 12 32 0 3 -8 14 -14 24 -14 18 0 19 7 15 113 -4 103 -7 114 -29
135 -29 26 -103 30 -145 7z m117 -180 c-29 -45 -116 -45 -116 0 0 26 2 26 85
43 46 9 56 -4 31 -43z"/>
<path d="M12515 6548 c-48 -26 -59 -74 -25 -108 11 -11 47 -27 79 -36 33 -10
62 -22 65 -29 7 -20 -9 -35 -47 -42 -29 -4 -40 -1 -62 21 -28 28 -40 32 -50
16 -11 -18 6 -50 35 -65 73 -38 169 -2 170 63 0 44 -18 61 -90 83 -53 16 -70
25 -70 39 0 35 71 42 94 9 15 -22 46 -23 53 -2 3 7 -7 24 -21 38 -19 19 -35
25 -68 25 -24 0 -52 -6 -63 -12z"/>
<path d="M13058 6544 c-37 -20 -58 -63 -58 -119 0 -84 47 -135 124 -135 62 0
132 81 83 96 -13 4 -23 2 -25 -6 -16 -48 -78 -64 -112 -30 -25 25 -30 102 -9
142 20 36 92 35 104 -3 5 -13 14 -19 28 -17 32 5 32 25 -1 58 -35 34 -87 40
-134 14z"/>
<path d="M14118 6543 c-11 -11 -18 -13 -18 -5 0 7 -9 12 -20 12 -19 0 -20 -7
-20 -130 l0 -130 25 0 c25 0 25 0 25 93 0 107 14 139 58 135 21 -2 27 1 27 17
0 27 -53 33 -77 8z"/>
<path d="M14269 6545 c-14 -7 -30 -25 -37 -39 -17 -38 18 -45 52 -11 35 35 99
31 112 -7 8 -26 6 -27 -65 -39 -78 -14 -111 -39 -111 -84 0 -63 84 -97 152
-61 23 12 27 12 32 0 3 -8 14 -14 24 -14 18 0 19 7 15 113 -4 103 -7 114 -29
135 -29 26 -103 30 -145 7z m117 -180 c-29 -45 -116 -45 -116 0 0 26 2 26 85
43 46 9 56 -4 31 -43z"/>
<path d="M14964 6527 c-29 -26 -37 -42 -41 -79 -7 -63 12 -115 51 -139 59 -36
150 -17 175 37 16 36 -20 42 -53 9 -14 -14 -36 -25 -49 -25 -31 0 -77 36 -77
61 0 17 8 19 95 19 95 0 95 0 95 25 0 43 -27 93 -59 109 -50 26 -96 21 -137
-17z m124 -23 c12 -8 22 -24 22 -35 0 -17 -7 -19 -70 -19 -79 0 -90 13 -44 49
32 25 61 27 92 5z"/>
<path d="M15248 6544 c-37 -20 -58 -63 -58 -119 0 -84 47 -135 124 -135 62 0
132 81 83 96 -13 4 -23 2 -25 -6 -16 -48 -78 -64 -112 -30 -25 25 -30 102 -9
142 20 36 92 35 104 -3 5 -13 14 -19 28 -17 32 5 32 25 -1 58 -35 34 -87 40
-134 14z"/>
<path d="M15516 6539 c-21 -17 -26 -18 -26 -5 0 9 -8 16 -20 16 -19 0 -20 -7
-20 -130 l0 -130 25 0 c25 0 25 0 25 95 0 82 3 98 20 115 27 27 65 26 84 -2
12 -16 16 -47 16 -115 0 -86 1 -93 20 -93 19 0 20 7 20 114 0 112 -1 115 -26
135 -15 12 -41 21 -59 21 -18 0 -44 -9 -59 -21z"/>
<path d="M15888 6544 c-37 -20 -58 -63 -58 -119 0 -84 47 -135 124 -135 62 0
132 81 83 96 -13 4 -23 2 -25 -6 -16 -48 -78 -64 -112 -30 -25 25 -30 102 -9
142 20 36 92 35 104 -3 5 -13 14 -19 28 -17 32 5 32 25 -1 58 -35 34 -87 40
-134 14z"/>
<path d="M16129 6545 c-14 -7 -30 -25 -37 -39 -17 -38 18 -45 52 -11 35 35 99
31 112 -7 8 -26 6 -27 -65 -39 -78 -14 -111 -39 -111 -84 0 -63 84 -97 152
-61 23 12 27 12 32 0 3 -8 14 -14 24 -14 18 0 19 7 15 113 -4 103 -7 114 -29
135 -29 26 -103 30 -145 7z m117 -180 c-29 -45 -116 -45 -116 0 0 26 2 26 85
43 46 9 56 -4 31 -43z"/>
<path d="M12080 6420 l0 -130 25 0 25 0 0 130 0 130 -25 0 -25 0 0 -130z"/>
<path d="M12740 6530 c0 -16 7 -20 30 -20 23 0 30 4 30 20 0 16 -7 20 -30 20
-23 0 -30 -4 -30 -20z"/>
<path d="M13262 6439 c3 -102 5 -112 27 -130 28 -23 83 -25 116 -3 23 15 25
15 25 0 0 -9 8 -16 20 -16 19 0 20 7 20 130 0 123 -1 130 -20 130 -18 0 -20
-7 -20 -74 0 -41 -4 -86 -10 -100 -13 -36 -52 -53 -85 -38 -24 11 -25 15 -25
112 l0 100 -26 0 -26 0 4 -111z"/>
<path d="M13792 6439 c3 -102 5 -112 27 -130 28 -23 83 -25 116 -3 23 15 25
15 25 0 0 -9 8 -16 20 -16 19 0 20 7 20 130 0 123 -1 130 -20 130 -18 0 -20
-7 -20 -74 0 -41 -4 -86 -10 -100 -13 -36 -52 -53 -85 -38 -24 11 -25 15 -25
112 l0 100 -26 0 -26 0 4 -111z"/>
<path d="M15730 6420 l0 -130 25 0 25 0 0 130 0 130 -25 0 -25 0 0 -130z"/>
<path d="M16495 6533 c50 -127 85 -230 85 -249 0 -29 -25 -54 -55 -54 -18 0
-22 -4 -18 -20 7 -28 54 -26 81 3 19 20 132 302 132 329 0 5 -10 8 -21 6 -17
-2 -29 -23 -57 -101 l-35 -99 -13 39 c-8 21 -23 66 -35 101 -18 54 -24 62 -46
62 -20 0 -24 -4 -18 -17z"/>
<path d="M2866 6499 c-21 -17 -26 -18 -26 -5 0 9 -8 16 -20 16 -19 0 -20 -7
-20 -130 l0 -130 25 0 c25 0 25 0 25 95 0 82 3 98 20 115 27 27 65 26 84 -2
12 -16 16 -47 16 -115 0 -86 1 -93 20 -93 19 0 20 7 20 114 0 112 -1 115 -26
135 -15 12 -41 21 -59 21 -18 0 -44 -9 -59 -21z"/>
<path d="M3278 6503 c-11 -11 -18 -13 -18 -5 0 7 -9 12 -20 12 -19 0 -20 -7
-20 -130 l0 -130 25 0 c25 0 25 0 25 93 0 107 14 139 58 135 21 -2 27 1 27 17
0 27 -53 33 -77 8z"/>
<path d="M3433 6500 c-43 -26 -53 -48 -53 -119 0 -52 4 -65 28 -92 35 -39 102
-50 151 -24 80 41 81 199 2 239 -41 21 -89 20 -128 -4z m111 -41 c22 -18 26
-28 26 -74 0 -46 -4 -56 -26 -74 -52 -41 -107 -16 -120 54 -16 89 55 145 120
94z"/>
<path d="M4268 6504 c-37 -20 -58 -63 -58 -119 0 -84 47 -135 124 -135 62 0
132 81 83 96 -13 4 -23 2 -25 -6 -16 -48 -78 -64 -112 -30 -25 25 -30 102 -9
142 20 36 92 35 104 -3 5 -13 14 -19 28 -17 32 5 32 25 -1 58 -35 34 -87 40
-134 14z"/>
<path d="M4518 6504 c-37 -20 -58 -63 -58 -119 0 -84 47 -135 124 -135 62 0
132 81 83 96 -13 4 -23 2 -25 -6 -16 -48 -78 -64 -112 -30 -25 25 -30 102 -9
142 20 36 92 35 104 -3 5 -13 14 -19 28 -17 32 5 32 25 -1 58 -35 34 -87 40
-134 14z"/>
<path d="M4878 6504 c-37 -20 -58 -63 -58 -119 0 -82 47 -135 120 -135 73 0
120 53 120 135 0 25 -7 59 -15 75 -28 55 -109 76 -167 44z m108 -47 c23 -20
27 -32 27 -72 0 -40 -4 -52 -27 -72 -31 -26 -44 -28 -81 -11 -53 24 -55 140
-2 166 34 17 54 14 83 -11z"/>
<path d="M5176 6499 c-21 -17 -26 -18 -26 -5 0 9 -8 16 -20 16 -19 0 -20 -7
-20 -130 l0 -130 25 0 c25 0 25 0 25 95 0 82 3 98 20 115 27 27 65 26 84 -2
12 -16 16 -47 16 -115 0 -86 1 -93 20 -93 19 0 20 7 20 114 0 112 -1 115 -26
135 -15 12 -41 21 -59 21 -18 0 -44 -9 -59 -21z"/>
<path d="M5569 6505 c-14 -7 -30 -25 -37 -39 -17 -38 18 -45 52 -11 35 35 99
31 112 -7 8 -26 6 -27 -65 -39 -78 -14 -111 -39 -111 -84 0 -63 84 -97 152
-61 23 12 27 12 32 0 3 -8 14 -14 24 -14 18 0 19 7 15 113 -4 103 -7 114 -29
135 -29 26 -103 30 -145 7z m117 -180 c-29 -45 -116 -45 -116 0 0 26 2 26 85
43 46 9 56 -4 31 -43z"/>
<path d="M6099 6505 c-14 -7 -30 -25 -37 -39 -17 -38 18 -45 52 -11 35 35 99
31 112 -7 8 -26 6 -27 -65 -39 -78 -14 -111 -39 -111 -84 0 -63 84 -97 152
-61 23 12 27 12 32 0 3 -8 14 -14 24 -14 18 0 19 7 15 113 -4 103 -7 114 -29
135 -29 26 -103 30 -145 7z m117 -180 c-29 -45 -116 -45 -116 0 0 26 2 26 85
43 46 9 56 -4 31 -43z"/>
<path d="M6676 6499 c-21 -17 -26 -18 -26 -5 0 9 -8 16 -20 16 -19 0 -20 -7
-20 -130 l0 -130 25 0 c25 0 25 0 25 95 0 82 3 98 20 115 27 27 65 26 84 -2
12 -16 16 -47 16 -115 0 -86 1 -93 20 -93 19 0 20 7 20 114 0 112 -1 115 -26
135 -15 12 -41 21 -59 21 -18 0 -44 -9 -59 -21z"/>
<path d="M7188 6504 c-37 -20 -58 -63 -58 -119 0 -86 47 -135 129 -135 63 0
131 69 86 86 -9 4 -25 -4 -40 -20 -38 -42 -105 -28 -124 25 l-10 29 100 0
c111 0 115 3 85 74 -29 68 -104 95 -168 60z m95 -35 c25 -14 37 -28 37 -46 0
-9 -21 -13 -70 -13 -73 0 -84 8 -57 42 22 28 56 34 90 17z"/>
<path d="M7455 6508 c-48 -26 -59 -74 -25 -108 11 -11 47 -27 79 -36 33 -10
62 -22 65 -29 7 -20 -9 -35 -47 -42 -29 -4 -40 -1 -62 21 -28 28 -40 32 -50
16 -11 -18 6 -50 35 -65 73 -38 169 -2 170 63 0 44 -18 61 -90 83 -53 16 -70
25 -70 39 0 35 71 42 94 9 15 -22 46 -23 53 -2 3 7 -7 24 -21 38 -19 19 -35
25 -68 25 -24 0 -52 -6 -63 -12z"/>
<path d="M7948 6491 c-30 -26 -33 -35 -36 -100 -4 -70 -4 -71 32 -107 31 -31
41 -36 74 -32 20 3 45 8 55 12 25 12 23 -28 -3 -54 -28 -28 -73 -25 -106 5
-15 14 -33 25 -41 25 -21 0 -7 -40 25 -69 22 -20 33 -23 79 -19 95 8 112 46
113 241 l0 117 -25 0 c-14 0 -25 -5 -25 -11 0 -5 -10 -3 -22 5 -36 25 -83 20
-120 -13z m117 -36 c19 -18 25 -35 25 -70 0 -78 -59 -118 -111 -76 -20 16 -24
28 -24 76 0 48 4 60 24 76 31 26 57 24 86 -6z"/>
<path d="M8239 6505 c-14 -7 -30 -25 -37 -39 -17 -38 18 -45 52 -11 35 35 99
31 112 -7 8 -26 6 -27 -65 -39 -78 -14 -111 -39 -111 -84 0 -63 84 -97 152
-61 23 12 27 12 32 0 3 -8 14 -14 24 -14 18 0 19 7 15 113 -4 103 -7 114 -29
135 -29 26 -103 30 -145 7z m117 -180 c-29 -45 -116 -45 -116 0 0 26 2 26 85
43 46 9 56 -4 31 -43z"/>
<path d="M8518 6504 c-37 -20 -58 -63 -58 -119 0 -84 47 -135 124 -135 62 0
132 81 83 96 -13 4 -23 2 -25 -6 -16 -48 -78 -64 -112 -30 -25 25 -30 102 -9
142 20 36 92 35 104 -3 5 -13 14 -19 28 -17 32 5 32 25 -1 58 -35 34 -87 40
-134 14z"/>
<path d="M8878 6504 c-37 -20 -58 -63 -58 -119 0 -82 47 -135 120 -135 73 0
120 53 120 135 0 25 -7 59 -15 75 -28 55 -109 76 -167 44z m108 -47 c23 -20
27 -32 27 -72 0 -40 -4 -52 -27 -72 -31 -26 -44 -28 -81 -11 -53 24 -55 140
-2 166 34 17 54 14 83 -11z"/>
<path d="M9176 6499 c-21 -17 -26 -18 -26 -5 0 9 -8 16 -20 16 -19 0 -20 -7
-20 -130 l0 -130 25 0 c25 0 25 0 25 95 0 82 3 98 20 115 27 27 65 26 84 -2
12 -16 16 -47 16 -115 0 -86 1 -93 20 -93 19 0 20 7 20 114 0 112 -1 115 -26
135 -15 12 -41 21 -59 21 -18 0 -44 -9 -59 -21z"/>
<path d="M3942 6399 c3 -102 5 -112 27 -130 28 -23 83 -25 116 -3 23 15 25 15
25 0 0 -9 8 -16 20 -16 19 0 20 7 20 130 0 123 -1 130 -20 130 -18 0 -20 -7
-20 -74 0 -41 -4 -86 -10 -100 -13 -36 -52 -53 -85 -38 -24 11 -25 15 -25 112
l0 100 -26 0 -26 0 4 -111z"/>
<path d="M4720 6380 l0 -130 25 0 25 0 0 130 0 130 -25 0 -25 0 0 -130z"/>
<path d="M6870 6503 c0 -4 21 -62 47 -130 43 -116 48 -124 71 -121 21 3 29 17
68 123 24 66 44 123 44 128 0 4 -10 7 -23 7 -19 0 -27 -13 -56 -101 l-35 -102
-32 89 c-18 49 -33 95 -33 102 -1 12 -51 18 -51 5z"/>
<path d="M7810 6380 l0 -130 25 0 25 0 0 130 0 130 -25 0 -25 0 0 -130z"/>
<path d="M8720 6380 l0 -130 25 0 25 0 0 130 0 130 -25 0 -25 0 0 -130z"/>
<path d="M12740 6310 c0 -16 7 -20 30 -20 23 0 30 4 30 20 0 16 -7 20 -30 20
-23 0 -30 -4 -30 -20z"/>
<path d="M14520 6310 c0 -11 7 -20 15 -20 19 0 19 -20 0 -47 -16 -23 -8 -37
13 -24 13 8 32 64 32 93 0 13 -8 18 -30 18 -23 0 -30 -4 -30 -20z"/>
<path d="M21045 6040 c-19 -37 -19 -40 4 -40 10 0 31 16 45 35 l27 35 -30 0
c-24 0 -34 -7 -46 -30z"/>
<path d="M17930 5881 l0 -181 25 0 c24 0 25 2 25 75 l0 75 71 0 c75 0 104 10
131 44 27 32 23 99 -6 133 -23 27 -28 28 -135 31 l-111 4 0 -181z m198 123
c18 -12 22 -24 20 -52 -4 -46 -32 -62 -110 -62 l-58 0 0 65 0 65 63 0 c41 0
70 -5 85 -16z"/>
<path d="M20200 5999 l0 -60 -22 15 c-35 25 -83 20 -119 -12 -27 -24 -33 -37
-37 -85 -5 -65 9 -109 46 -137 30 -24 79 -26 110 -4 20 14 22 14 22 0 0 -9 9
-16 20 -16 19 0 20 7 20 180 0 173 -1 180 -20 180 -18 0 -20 -7 -20 -61z m-25
-94 c19 -18 25 -35 25 -70 0 -101 -100 -131 -130 -39 -22 67 9 134 63 134 10
0 29 -11 42 -25z"/>
<path d="M20690 6040 c0 -18 7 -20 60 -20 l60 0 0 -160 0 -160 25 0 25 0 0
160 0 160 60 0 c53 0 60 2 60 20 0 19 -7 20 -145 20 -138 0 -145 -1 -145 -20z"/>
<path d="M21570 5880 l0 -180 25 0 25 0 0 180 0 180 -25 0 -25 0 0 -180z"/>
<path d="M22120 5880 c0 -173 1 -180 20 -180 19 0 20 7 20 180 0 173 -1 180
-20 180 -19 0 -20 -7 -20 -180z"/>
<path d="M22790 5880 c0 -173 1 -180 20 -180 19 0 20 7 20 180 0 173 -1 180
-20 180 -19 0 -20 -7 -20 -180z"/>
<path d="M22930 5880 c0 -173 1 -180 20 -180 19 0 20 7 20 180 0 173 -1 180
-20 180 -19 0 -20 -7 -20 -180z"/>
<path d="M11230 5989 l0 -60 -22 15 c-35 25 -83 20 -119 -12 -27 -24 -33 -37
-37 -85 -5 -65 9 -109 46 -137 30 -24 79 -26 110 -4 20 14 22 14 22 0 0 -9 9
-16 20 -16 19 0 20 7 20 180 0 173 -1 180 -20 180 -18 0 -20 -7 -20 -61z m-25
-94 c19 -18 25 -35 25 -70 0 -101 -100 -131 -130 -39 -22 67 9 134 63 134 10
0 29 -11 42 -25z"/>
<path d="M19498 6036 c-11 -8 -18 -26 -18 -45 0 -21 -5 -31 -15 -31 -8 0 -15
-9 -15 -20 0 -11 7 -20 15 -20 12 0 15 -17 15 -94 0 -106 10 -126 61 -126 22
0 29 5 29 20 0 13 -7 20 -20 20 -19 0 -20 7 -20 90 0 83 1 90 20 90 13 0 20 7
20 20 0 13 -7 20 -20 20 -17 0 -20 7 -20 45 0 48 -5 52 -32 31z"/>
<path d="M21188 6036 c-11 -8 -18 -26 -18 -45 0 -21 -5 -31 -15 -31 -8 0 -15
-9 -15 -20 0 -11 7 -20 15 -20 12 0 15 -17 15 -94 0 -106 10 -126 61 -126 22
0 29 5 29 20 0 13 -7 20 -20 20 -19 0 -20 7 -20 90 0 83 1 90 20 90 13 0 20 7
20 20 0 13 -7 20 -20 20 -17 0 -20 7 -20 45 0 48 -5 52 -32 31z"/>
<path d="M11898 6026 c-11 -8 -18 -26 -18 -45 0 -21 -5 -31 -15 -31 -8 0 -15
-9 -15 -20 0 -11 7 -20 15 -20 12 0 15 -17 15 -94 0 -106 10 -126 61 -126 22
0 29 5 29 20 0 13 -7 20 -20 20 -19 0 -20 7 -20 90 0 83 1 90 20 90 13 0 20 7
20 20 0 13 -7 20 -20 20 -17 0 -20 7 -20 45 0 48 -5 52 -32 31z"/>
<path d="M3640 5830 l0 -180 25 0 25 0 0 180 0 180 -25 0 -25 0 0 -180z"/>
<path d="M3900 5831 l0 -181 94 0 c80 0 98 3 127 23 48 32 71 85 71 162 -1 69
-15 106 -57 145 -24 23 -36 25 -131 28 l-104 4 0 -181z m184 129 c36 -13 56
-59 56 -130 0 -105 -35 -140 -141 -140 l-49 0 0 140 0 140 54 0 c30 0 66 -4
80 -10z"/>
<path d="M4250 5990 c0 -15 7 -20 25 -20 18 0 25 5 25 20 0 15 -7 20 -25 20
-18 0 -25 -5 -25 -20z"/>
<path d="M4937 5992 c-10 -10 -17 -24 -17 -30 0 -16 37 -15 42 0 4 10 10 10
32 0 39 -18 63 -15 80 10 9 12 16 26 16 30 0 13 -38 9 -42 -4 -4 -10 -10 -10
-32 0 -37 17 -60 15 -79 -6z"/>
<path d="M18308 5953 c-11 -11 -18 -13 -18 -5 0 7 -9 12 -20 12 -19 0 -20 -7
-20 -130 l0 -130 25 0 c25 0 25 0 25 93 0 107 14 139 58 135 21 -2 27 1 27 17
0 27 -53 33 -77 8z"/>
<path d="M18463 5950 c-43 -26 -53 -48 -53 -119 0 -52 4 -65 28 -92 35 -39
102 -50 151 -24 80 41 81 199 2 239 -41 21 -89 20 -128 -4z m111 -41 c22 -18
26 -28 26 -74 0 -46 -4 -56 -26 -74 -52 -41 -107 -16 -120 54 -16 89 55 145
120 94z"/>
<path d="M18988 5954 c-37 -20 -58 -63 -58 -119 0 -86 47 -135 129 -135 63 0
131 69 86 86 -9 4 -25 -4 -40 -20 -38 -42 -105 -28 -124 25 l-10 29 100 0
c111 0 115 3 85 74 -29 68 -104 95 -168 60z m95 -35 c25 -14 37 -28 37 -46 0
-9 -21 -13 -70 -13 -73 0 -84 8 -57 42 22 28 56 34 90 17z"/>
<path d="M19268 5954 c-37 -20 -58 -63 -58 -119 0 -84 47 -135 124 -135 62 0
132 81 83 96 -13 4 -23 2 -25 -6 -16 -48 -78 -64 -112 -30 -25 25 -30 102 -9
142 20 36 92 35 104 -3 5 -13 14 -19 28 -17 32 5 32 25 -1 58 -35 34 -87 40
-134 14z"/>
<path d="M19653 5950 c-43 -26 -53 -48 -53 -119 0 -52 4 -65 28 -92 35 -39
102 -50 151 -24 80 41 81 199 2 239 -41 21 -89 20 -128 -4z m111 -41 c22 -18
26 -28 26 -74 0 -46 -4 -56 -26 -74 -52 -41 -107 -16 -120 54 -16 89 55 145
120 94z"/>
<path d="M20348 5954 c-37 -20 -58 -63 -58 -119 0 -86 47 -135 129 -135 63 0
131 69 86 86 -9 4 -25 -4 -40 -20 -38 -42 -105 -28 -124 25 l-10 29 100 0
c111 0 115 3 85 74 -29 68 -104 95 -168 60z m95 -35 c25 -14 37 -28 37 -46 0
-9 -21 -13 -70 -13 -73 0 -84 8 -57 42 22 28 56 34 90 17z"/>
<path d="M21733 5950 c-43 -26 -53 -48 -53 -119 0 -52 4 -65 28 -92 35 -39
102 -50 151 -24 80 41 81 199 2 239 -41 21 -89 20 -128 -4z m111 -41 c22 -18
26 -28 26 -74 0 -46 -4 -56 -26 -74 -52 -41 -107 -16 -120 54 -16 89 55 145
120 94z"/>
<path d="M10410 5943 c-17 -12 -25 -13 -28 -5 -2 7 -12 12 -23 12 -18 0 -19
-9 -19 -180 l0 -180 25 0 c24 0 25 2 25 67 0 63 1 65 18 50 31 -28 80 -21 117
16 58 58 59 156 3 209 -35 33 -81 37 -118 11z m85 -48 c19 -18 25 -35 25 -70
0 -107 -117 -131 -135 -27 -10 62 23 121 68 122 10 0 29 -11 42 -25z"/>
<path d="M10678 5943 c-11 -11 -18 -13 -18 -5 0 7 -9 12 -20 12 -19 0 -20 -7
-20 -130 l0 -130 25 0 c25 0 25 0 25 93 0 107 14 139 58 135 21 -2 27 1 27 17
0 27 -53 33 -77 8z"/>
<path d="M10823 5940 c-43 -26 -53 -48 -53 -119 0 -52 4 -65 28 -92 35 -39
102 -50 151 -24 80 41 81 199 2 239 -41 21 -89 20 -128 -4z m111 -41 c22 -18
26 -28 26 -74 0 -46 -4 -56 -26 -74 -52 -41 -107 -16 -120 54 -16 89 55 145
120 94z"/>
<path d="M11668 5944 c-37 -20 -58 -63 -58 -119 0 -84 47 -135 124 -135 62 0
132 81 83 96 -13 4 -23 2 -25 -6 -16 -48 -78 -64 -112 -30 -25 25 -30 102 -9
142 20 36 92 35 104 -3 5 -13 14 -19 28 -17 32 5 32 25 -1 58 -35 34 -87 40
-134 14z"/>
<path d="M12053 5940 c-43 -26 -53 -48 -53 -119 0 -52 4 -65 28 -92 35 -39
102 -50 151 -24 80 41 81 199 2 239 -41 21 -89 20 -128 -4z m111 -41 c22 -18
26 -28 26 -74 0 -46 -4 -56 -26 -74 -52 -41 -107 -16 -120 54 -16 89 55 145
120 94z"/>
<path d="M18675 5943 c50 -127 85 -230 85 -249 0 -29 -25 -54 -55 -54 -18 0
-22 -4 -18 -20 7 -28 54 -26 81 3 19 20 132 302 132 329 0 5 -10 8 -21 6 -17
-2 -29 -23 -57 -101 l-35 -99 -13 39 c-8 21 -23 66 -35 101 -18 54 -24 62 -46
62 -20 0 -24 -4 -18 -17z"/>
<path d="M21040 5830 l0 -130 25 0 25 0 0 130 0 130 -25 0 -25 0 0 -130z"/>
<path d="M21302 5849 c3 -102 5 -112 27 -130 28 -23 83 -25 116 -3 23 15 25
15 25 0 0 -9 8 -16 20 -16 19 0 20 7 20 130 0 123 -1 130 -20 130 -18 0 -20
-7 -20 -74 0 -41 -4 -86 -10 -100 -13 -36 -52 -53 -85 -38 -24 11 -25 15 -25
112 l0 100 -26 0 -26 0 4 -111z"/>
<path d="M22365 5943 c50 -127 85 -230 85 -249 0 -29 -25 -54 -55 -54 -18 0
-22 -4 -18 -20 7 -28 54 -26 81 3 19 20 132 302 132 329 0 5 -10 8 -21 6 -17
-2 -29 -23 -57 -101 l-35 -99 -13 39 c-8 21 -23 66 -35 101 -18 54 -24 62 -46
62 -20 0 -24 -4 -18 -17z"/>
<path d="M11342 5839 c3 -102 5 -112 27 -130 28 -23 83 -25 116 -3 23 15 25
15 25 0 0 -9 8 -16 20 -16 19 0 20 7 20 130 0 123 -1 130 -20 130 -18 0 -20
-7 -20 -74 0 -41 -4 -86 -10 -100 -13 -36 -52 -53 -85 -38 -24 11 -25 15 -25
112 l0 100 -26 0 -26 0 4 -111z"/>
<path d="M1987 5917 c-10 -7 -26 -39 -35 -71 -21 -69 -45 -92 -68 -62 -20 28
-17 54 9 79 22 21 26 57 6 57 -6 0 -21 -11 -34 -25 -36 -35 -36 -115 0 -150
48 -49 103 -17 125 73 7 31 20 56 30 62 48 26 71 -76 25 -106 -14 -9 -25 -25
-25 -35 0 -44 63 -7 80 47 29 88 -49 179 -113 131z"/>
<path d="M2718 5904 c-37 -20 -58 -63 -58 -119 0 -86 47 -135 129 -135 63 0
131 69 86 86 -9 4 -25 -4 -40 -20 -38 -42 -105 -28 -124 25 l-10 29 100 0
c111 0 115 3 85 74 -29 68 -104 95 -168 60z m95 -35 c25 -14 37 -28 37 -46 0
-9 -21 -13 -70 -13 -73 0 -84 8 -57 42 22 28 56 34 90 17z"/>
<path d="M3006 5899 c-21 -17 -26 -18 -26 -5 0 9 -8 16 -20 16 -19 0 -20 -7
-20 -130 l0 -130 25 0 c25 0 25 0 25 95 0 82 3 98 20 115 27 27 65 26 84 -2
12 -16 16 -47 16 -115 0 -86 1 -93 20 -93 19 0 20 7 20 114 0 112 -1 115 -26
135 -15 12 -41 21 -59 21 -18 0 -44 -9 -59 -21z"/>
<path d="M3408 5904 c-37 -20 -58 -63 -58 -119 0 -86 47 -135 129 -135 63 0
131 69 86 86 -9 4 -25 -4 -40 -20 -38 -42 -105 -28 -124 25 l-10 29 100 0
c111 0 115 3 85 74 -29 68 -104 95 -168 60z m95 -35 c25 -14 37 -28 37 -46 0
-9 -21 -13 -70 -13 -73 0 -84 8 -57 42 22 28 56 34 90 17z"/>
<path d="M4395 5908 c-48 -26 -59 -74 -25 -108 11 -11 47 -27 79 -36 33 -10
62 -22 65 -29 7 -20 -9 -35 -47 -42 -29 -4 -40 -1 -62 21 -28 28 -40 32 -50
16 -11 -18 6 -50 35 -65 73 -38 169 -2 170 63 0 44 -18 61 -90 83 -53 16 -70
25 -70 39 0 35 71 42 94 9 15 -22 46 -23 53 -2 3 7 -7 24 -21 38 -19 19 -35
25 -68 25 -24 0 -52 -6 -63 -12z"/>
<path d="M4658 5904 c-37 -20 -58 -63 -58 -119 0 -86 47 -135 129 -135 63 0
131 69 86 86 -9 4 -25 -4 -40 -20 -38 -42 -105 -28 -124 25 l-10 29 100 0
c111 0 115 3 85 74 -29 68 -104 95 -168 60z m95 -35 c25 -14 37 -28 37 -46 0
-9 -21 -13 -70 -13 -73 0 -84 8 -57 42 22 28 56 34 90 17z"/>
<path d="M4956 5899 c-21 -17 -26 -18 -26 -5 0 9 -8 16 -20 16 -19 0 -20 -7
-20 -130 l0 -130 25 0 c25 0 25 0 25 95 0 82 3 98 20 115 27 27 65 26 84 -2
12 -16 16 -47 16 -115 0 -86 1 -93 20 -93 19 0 20 7 20 114 0 112 -1 115 -26
135 -15 12 -41 21 -59 21 -18 0 -44 -9 -59 -21z"/>
<path d="M5213 5900 c-43 -26 -53 -48 -53 -119 0 -52 4 -65 28 -92 35 -39 102
-50 151 -24 80 41 81 199 2 239 -41 21 -89 20 -128 -4z m111 -41 c22 -18 26
-28 26 -74 0 -46 -4 -56 -26 -74 -52 -41 -107 -16 -120 54 -16 89 55 145 120
94z"/>
<path d="M4250 5780 l0 -130 25 0 25 0 0 130 0 130 -25 0 -25 0 0 -130z"/>
<path d="M1930 5683 c-63 -20 -90 -56 -90 -120 0 -69 52 -113 134 -113 77 0
115 28 130 98 13 58 -27 132 -71 132 -22 0 -14 -37 12 -54 25 -16 33 -54 19
-91 -6 -16 -54 -45 -74 -45 -6 0 -10 37 -10 100 0 106 -2 109 -50 93z m20
-118 c0 -41 -2 -75 -5 -75 -32 0 -75 48 -75 84 0 22 40 66 61 66 17 0 19 -8
19 -75z"/>
<path d="M1847 5423 c-13 -12 -7 -56 10 -75 15 -17 15 -18 0 -18 -10 0 -17 -7
-17 -15 0 -13 21 -15 130 -15 123 0 130 1 130 20 0 18 -7 20 -88 20 -101 0
-137 16 -129 56 2 14 -2 25 -10 28 -18 7 -18 7 -26 -1z"/>
<path d="M10020 5280 l0 -100 -205 0 -204 0 -3 93 -3 92 -3561 3 -3562 2 -7
-202 c-4 -112 -5 -221 -3 -243 l3 -40 1708 -3 1707 -2 0 -130 0 -130 155 0
155 0 0 130 0 130 3605 0 3605 0 0 -130 0 -130 155 0 155 0 0 130 0 130 3945
0 3945 0 0 -130 0 -130 155 0 155 0 0 130 0 130 1365 0 1365 0 0 250 0 250
-3565 0 -3565 0 0 -100 0 -100 -195 0 -195 0 0 100 0 100 -3555 0 -3555 0 0
-100z"/>
<path d="M1840 5225 c0 -22 -4 -25 -40 -25 -22 0 -40 -4 -40 -8 0 -17 25 -32
52 -32 18 0 28 -5 28 -15 0 -8 9 -15 20 -15 11 0 20 7 20 15 0 12 18 15 100
15 95 0 100 1 116 25 8 13 14 32 12 42 -5 26 -32 27 -43 1 -9 -21 -17 -23 -97
-26 l-88 -3 0 26 c0 18 -5 25 -20 25 -15 0 -20 -7 -20 -25z"/>
<path d="M1987 5087 c-10 -7 -26 -39 -35 -71 -21 -69 -45 -92 -68 -62 -20 28
-17 54 9 79 22 21 26 57 6 57 -6 0 -21 -11 -34 -25 -36 -35 -36 -115 0 -150
48 -49 103 -17 125 73 7 31 20 56 30 62 48 26 71 -76 25 -106 -14 -9 -25 -25
-25 -35 0 -44 63 -7 80 47 29 88 -49 179 -113 131z"/>
<path d="M1930 4843 c-63 -20 -90 -56 -90 -120 0 -69 52 -113 134 -113 77 0
115 28 130 98 13 58 -27 132 -71 132 -22 0 -14 -37 12 -54 25 -16 33 -54 19
-91 -6 -16 -54 -45 -74 -45 -6 0 -10 37 -10 100 0 106 -2 109 -50 93z m20
-118 c0 -41 -2 -75 -5 -75 -32 0 -75 48 -75 84 0 22 40 66 61 66 17 0 19 -8
19 -75z"/>
<path d="M1890 4563 c-51 -19 -68 -89 -32 -133 18 -23 18 -24 0 -42 -23 -23
-24 -80 -2 -113 15 -23 15 -25 0 -25 -9 0 -16 -8 -16 -20 0 -19 7 -20 130 -20
l130 0 0 25 c0 25 0 25 -94 25 -90 0 -96 1 -115 26 -26 33 -26 39 -1 64 17 17
33 20 115 20 88 0 95 1 95 20 0 18 -7 20 -82 20 -115 0 -159 28 -137 88 8 21
14 22 114 22 l105 0 0 25 0 25 -97 -1 c-54 0 -105 -3 -113 -6z"/>
<path d="M4682 4299 c-57 -28 -84 -81 -85 -164 -1 -83 25 -133 83 -162 74 -38
158 -23 197 36 30 45 29 57 -7 70 -26 9 -32 8 -37 -7 -23 -66 -94 -83 -137
-31 -22 26 -26 40 -26 96 0 58 3 67 29 94 20 19 40 29 60 29 29 0 64 -23 72
-49 4 -12 69 -5 69 8 0 3 -9 21 -20 39 -37 61 -122 78 -198 41z"/>
<path d="M11372 4299 c-57 -28 -84 -81 -85 -164 -1 -83 25 -133 83 -162 74
-38 158 -23 197 36 30 45 29 57 -7 70 -26 9 -32 8 -37 -7 -23 -66 -94 -83
-137 -31 -22 26 -26 40 -26 96 0 58 3 67 29 94 20 19 40 29 60 29 29 0 64 -23
72 -49 4 -12 69 -5 69 8 0 3 -9 21 -20 39 -37 61 -122 78 -198 41z"/>
<path d="M19842 4299 c-57 -28 -84 -81 -85 -164 -1 -83 25 -133 83 -162 74
-38 158 -23 197 36 30 45 29 57 -7 70 -26 9 -32 8 -37 -7 -23 -66 -94 -83
-137 -31 -22 26 -26 40 -26 96 0 58 3 67 29 94 20 19 40 29 60 29 29 0 64 -23
72 -49 4 -12 69 -5 69 8 0 3 -9 21 -20 39 -37 61 -122 78 -198 41z"/>
<path d="M4970 4280 c0 -27 3 -30 30 -30 27 0 30 3 30 30 0 27 -3 30 -30 30
-27 0 -30 -3 -30 -30z"/>
<path d="M5390 4130 l0 -180 30 0 30 0 0 180 0 180 -30 0 -30 0 0 -180z"/>
<path d="M5960 4130 l0 -180 35 0 c24 0 35 5 35 14 0 12 5 12 31 -1 42 -21 91
-10 123 28 49 58 34 184 -25 214 -36 19 -63 19 -99 0 l-30 -16 0 61 0 60 -35
0 -35 0 0 -180z m163 25 c36 -36 27 -137 -14 -150 -46 -15 -79 23 -79 90 0 60
57 96 93 60z"/>
<path d="M6355 4280 c-19 -37 -19 -40 3 -40 10 0 33 16 52 35 l34 35 -37 0
c-30 0 -39 -5 -52 -30z"/>
<path d="M6840 4280 c0 -27 3 -30 30 -30 27 0 30 3 30 30 0 27 -3 30 -30 30
-27 0 -30 -3 -30 -30z"/>
<path d="M11660 4280 c0 -27 3 -30 30 -30 27 0 30 3 30 30 0 27 -3 30 -30 30
-27 0 -30 -3 -30 -30z"/>
<path d="M12070 4130 l0 -180 30 0 30 0 0 180 0 180 -30 0 -30 0 0 -180z"/>
<path d="M14080 4280 c0 -27 3 -30 30 -30 27 0 30 3 30 30 0 27 -3 30 -30 30
-27 0 -30 -3 -30 -30z"/>
<path d="M14490 4130 l0 -180 30 0 30 0 0 180 0 180 -30 0 -30 0 0 -180z"/>
<path d="M14630 4280 c0 -27 3 -30 30 -30 27 0 30 3 30 30 0 27 -3 30 -30 30
-27 0 -30 -3 -30 -30z"/>
<path d="M15470 4250 c0 -64 -3 -68 -34 -45 -43 32 -118 5 -142 -50 -51 -123
44 -245 149 -191 23 13 27 13 27 0 0 -9 11 -14 30 -14 l30 0 0 180 0 180 -30
0 -30 0 0 -60z m-27 -95 c20 -19 30 -68 22 -97 -28 -90 -115 -70 -115 27 0 22
7 51 16 63 17 25 56 29 77 7z"/>
<path d="M20130 4280 c0 -27 3 -30 30 -30 27 0 30 3 30 30 0 27 -3 30 -30 30
-27 0 -30 -3 -30 -30z"/>
<path d="M20550 4130 l0 -180 30 0 30 0 0 180 0 180 -30 0 -30 0 0 -180z"/>
<path d="M21973 4295 c-12 -9 -25 -31 -29 -50 -3 -20 -12 -35 -20 -35 -8 0
-14 -10 -14 -25 0 -16 6 -25 15 -25 12 0 15 -18 15 -105 l0 -105 35 0 35 0 0
105 0 105 25 0 c20 0 25 5 25 25 0 20 -5 25 -26 25 -21 0 -25 4 -22 23 2 16
11 23 31 25 32 4 47 29 26 43 -22 14 -72 11 -96 -6z"/>
<path d="M22660 4280 c0 -27 3 -30 30 -30 27 0 30 3 30 30 0 27 -3 30 -30 30
-27 0 -30 -3 -30 -30z"/>
<path d="M23690 4130 l0 -180 30 0 30 0 0 180 0 180 -30 0 -30 0 0 -180z"/>
<path d="M5164 4210 c-75 -30 -96 -151 -38 -220 48 -56 157 -49 194 13 l20 32
-33 7 c-27 6 -35 3 -50 -18 -21 -27 -58 -32 -77 -9 -21 26 -25 101 -6 130 20
30 61 33 78 6 9 -15 19 -18 42 -14 40 8 40 7 26 33 -21 40 -104 61 -156 40z"/>
<path d="M5580 4203 c-99 -51 -89 -205 16 -242 78 -27 152 10 175 90 10 32 9
46 -5 83 -9 24 -29 52 -43 62 -39 25 -102 28 -143 7z m106 -54 c41 -46 14
-149 -40 -149 -38 0 -66 36 -66 85 0 73 63 111 106 64z"/>
<path d="M6314 4206 c-26 -12 -52 -43 -42 -51 16 -12 58 -12 68 0 16 19 54 19
70 0 18 -22 6 -31 -60 -44 -67 -13 -90 -36 -90 -87 0 -61 71 -92 134 -59 35
18 36 18 36 0 0 -10 10 -15 34 -15 l34 0 -9 40 c-5 22 -8 68 -7 102 0 35 -2
73 -6 85 -13 39 -101 55 -162 29z m106 -148 c0 -29 -28 -58 -57 -58 -47 0 -41
58 8 71 41 12 49 10 49 -13z"/>
<path d="M6590 4207 c-13 -7 -31 -25 -40 -40 -13 -24 -13 -30 0 -54 12 -21 32
-33 80 -49 50 -16 65 -25 65 -40 0 -28 -57 -32 -82 -5 -14 15 -25 18 -52 12
l-35 -7 31 -34 c30 -33 35 -35 96 -35 55 0 69 4 91 24 35 32 35 82 2 108 -13
11 -50 25 -81 32 -43 10 -55 16 -53 29 4 22 55 28 76 9 15 -14 72 -13 72 0 0
49 -109 81 -170 50z"/>
<path d="M7024 4210 c-75 -30 -96 -151 -38 -220 48 -56 157 -49 194 13 l20 32
-33 7 c-27 6 -35 3 -50 -18 -21 -27 -58 -32 -77 -9 -21 26 -25 101 -6 130 20
30 61 33 78 6 9 -15 19 -18 42 -14 40 8 40 7 26 33 -21 40 -104 61 -156 40z"/>
<path d="M7300 4203 c-99 -51 -89 -205 16 -242 78 -27 152 10 175 90 10 32 9
46 -5 83 -9 24 -29 52 -43 62 -39 25 -102 28 -143 7z m106 -54 c41 -46 14
-149 -40 -149 -38 0 -66 36 -66 85 0 73 63 111 106 64z"/>
<path d="M11854 4210 c-75 -30 -96 -151 -38 -220 48 -56 157 -49 194 13 l20
32 -33 7 c-27 6 -35 3 -50 -18 -21 -27 -58 -32 -77 -9 -21 26 -25 101 -6 130
20 30 61 33 78 6 9 -15 19 -18 42 -14 40 8 40 7 26 33 -21 40 -104 61 -156 40z"/>
<path d="M12260 4203 c-99 -51 -89 -205 16 -242 78 -27 152 10 175 90 10 32 9
46 -5 83 -9 24 -29 52 -43 62 -39 25 -102 28 -143 7z m106 -54 c41 -46 14
-149 -40 -149 -38 0 -66 36 -66 85 0 73 63 111 106 64z"/>
<path d="M12703 4206 c-17 -8 -39 -28 -47 -45 -22 -42 -20 -119 3 -157 36 -59
137 -69 187 -19 32 32 30 41 -8 49 -24 5 -34 2 -45 -14 -8 -11 -22 -20 -32
-20 -22 0 -51 30 -51 53 0 15 12 17 85 17 79 0 85 1 85 20 0 30 -24 82 -48
103 -27 25 -89 31 -129 13z m89 -53 c33 -29 22 -43 -32 -43 -43 0 -50 3 -50
20 0 36 51 51 82 23z"/>
<path d="M12970 4207 c-13 -7 -31 -25 -40 -40 -13 -24 -13 -30 0 -54 12 -21
32 -33 80 -49 50 -16 65 -25 65 -40 0 -28 -57 -32 -82 -5 -14 15 -25 18 -52
12 l-35 -7 31 -34 c30 -33 35 -35 96 -35 55 0 69 4 91 24 35 32 35 82 2 108
-13 11 -50 25 -81 32 -43 10 -55 16 -53 29 4 22 55 28 76 9 15 -14 72 -13 72
0 0 49 -109 81 -170 50z"/>
<path d="M13296 4199 c-21 -17 -26 -18 -26 -5 0 12 -10 16 -35 16 l-35 0 0
-180 0 -180 35 0 35 0 0 65 c0 69 3 73 34 50 33 -25 75 -18 110 18 59 58 56
160 -5 211 -37 31 -77 33 -113 5z m67 -44 c36 -36 27 -137 -14 -150 -49 -16
-87 34 -76 103 10 56 57 81 90 47z"/>
<path d="M13563 4206 c-17 -8 -39 -28 -47 -45 -22 -42 -20 -119 3 -157 36 -59
137 -69 187 -19 32 32 30 41 -8 49 -24 5 -34 2 -45 -14 -8 -11 -22 -20 -32
-20 -22 0 -51 30 -51 53 0 15 12 17 85 17 79 0 85 1 85 20 0 30 -24 82 -48
103 -27 25 -89 31 -129 13z m89 -53 c33 -29 22 -43 -32 -43 -43 0 -50 3 -50
20 0 36 51 51 82 23z"/>
<path d="M13854 4210 c-75 -30 -96 -151 -38 -220 48 -56 157 -49 194 13 l20
32 -33 7 c-27 6 -35 3 -50 -18 -21 -27 -58 -32 -77 -9 -21 26 -25 101 -6 130
20 30 61 33 78 6 9 -15 19 -18 42 -14 40 8 40 7 26 33 -21 40 -104 61 -156 40z"/>
<path d="M14244 4206 c-26 -12 -52 -43 -42 -51 16 -12 58 -12 68 0 16 19 54
19 70 0 17 -21 5 -32 -43 -40 -52 -9 -93 -29 -101 -50 -14 -37 -6 -74 20 -94
31 -25 68 -27 108 -6 35 18 36 18 36 0 0 -11 11 -15 36 -15 32 0 35 2 28 23
-4 12 -7 51 -6 87 2 96 -11 136 -50 149 -41 15 -86 13 -124 -3z m106 -148 c0
-29 -28 -58 -57 -58 -47 0 -41 58 8 71 41 12 49 10 49 -13z"/>
<path d="M15054 4206 c-26 -12 -52 -43 -42 -51 16 -12 58 -12 68 0 16 19 54
19 70 0 17 -21 5 -32 -43 -40 -52 -9 -93 -29 -101 -50 -14 -37 -6 -74 20 -94
31 -25 68 -27 108 -6 35 18 36 18 36 0 0 -11 11 -15 36 -15 32 0 35 2 28 23
-4 12 -7 51 -6 87 2 96 -11 136 -50 149 -41 15 -86 13 -124 -3z m106 -148 c0
-29 -28 -58 -57 -58 -47 0 -41 58 8 71 41 12 49 10 49 -13z"/>
<path d="M15650 4203 c-99 -51 -89 -205 16 -242 78 -27 152 10 175 90 10 32 9
46 -5 83 -9 24 -29 52 -43 62 -39 25 -102 28 -143 7z m106 -54 c41 -46 14
-149 -40 -149 -38 0 -66 36 -66 85 0 73 63 111 106 64z"/>
<path d="M20324 4210 c-75 -30 -96 -151 -38 -220 48 -56 157 -49 194 13 l20
32 -33 7 c-27 6 -35 3 -50 -18 -21 -27 -58 -32 -77 -9 -21 26 -25 101 -6 130
20 30 61 33 78 6 9 -15 19 -18 42 -14 40 8 40 7 26 33 -21 40 -104 61 -156 40z"/>
<path d="M20740 4203 c-99 -51 -89 -205 16 -242 78 -27 152 10 175 90 10 32 9
46 -5 83 -9 24 -29 52 -43 62 -39 25 -102 28 -143 7z m106 -54 c41 -46 14
-149 -40 -149 -38 0 -66 36 -66 85 0 73 63 111 106 64z"/>
<path d="M21216 4199 c-21 -17 -26 -18 -26 -5 0 12 -10 16 -35 16 l-35 0 0
-180 0 -180 35 0 35 0 0 65 c0 69 3 73 34 50 33 -25 75 -18 110 18 59 58 56
160 -5 211 -37 31 -77 33 -113 5z m67 -44 c36 -36 27 -137 -14 -150 -49 -16
-87 34 -76 103 10 56 57 81 90 47z"/>
<path d="M21522 4204 c-12 -8 -22 -10 -22 -5 0 6 -16 11 -35 11 l-35 0 0 -130
0 -130 35 0 35 0 0 78 c0 91 14 126 53 130 32 4 57 40 36 53 -21 13 -42 11
-67 -7z"/>
<path d="M21680 4203 c-99 -51 -89 -205 16 -242 78 -27 152 10 175 90 10 32 9
46 -5 83 -9 24 -29 52 -43 62 -39 25 -102 28 -143 7z m106 -54 c41 -46 14
-149 -40 -149 -38 0 -66 36 -66 85 0 73 63 111 106 64z"/>
<path d="M22153 4206 c-17 -8 -39 -28 -47 -45 -22 -42 -20 -119 3 -157 36 -59
137 -69 187 -19 32 32 30 41 -8 49 -24 5 -34 2 -45 -14 -8 -11 -22 -20 -32
-20 -22 0 -51 30 -51 53 0 15 12 17 85 17 79 0 85 1 85 20 0 30 -24 82 -48
103 -27 25 -89 31 -129 13z m89 -53 c33 -29 22 -43 -32 -43 -43 0 -50 3 -50
20 0 36 51 51 82 23z"/>
<path d="M22410 4207 c-13 -7 -31 -25 -40 -40 -13 -24 -13 -30 0 -54 12 -21
32 -33 80 -49 50 -16 65 -25 65 -40 0 -28 -57 -32 -82 -5 -14 15 -25 18 -52
12 l-35 -7 31 -34 c30 -33 35 -35 96 -35 55 0 69 4 91 24 35 32 35 82 2 108
-13 11 -50 25 -81 32 -43 10 -55 16 -53 29 4 22 55 28 76 9 15 -14 72 -13 72
0 0 49 -109 81 -170 50z"/>
<path d="M22850 4203 c-99 -51 -89 -205 16 -242 78 -27 152 10 175 90 10 32 9
46 -5 83 -9 24 -29 52 -43 62 -39 25 -102 28 -143 7z m106 -54 c41 -46 14
-149 -40 -149 -38 0 -66 36 -66 85 0 73 63 111 106 64z"/>
<path d="M23220 4213 c-8 -3 -23 -12 -32 -21 -16 -14 -18 -13 -18 1 0 12 -9
17 -30 17 l-30 0 0 -130 0 -130 30 0 30 0 1 73 c2 104 9 130 41 141 48 17 58
-3 58 -115 l0 -99 35 0 35 0 0 109 c0 89 -3 113 -17 130 -18 22 -75 35 -103
24z"/>
<path d="M23444 4206 c-26 -12 -52 -43 -42 -51 16 -12 58 -12 68 0 16 19 54
19 70 0 17 -21 5 -32 -43 -40 -52 -9 -93 -29 -101 -50 -14 -37 -6 -74 20 -94
31 -25 68 -27 108 -6 35 18 36 18 36 0 0 -11 11 -15 36 -15 32 0 35 2 28 23
-4 12 -7 51 -6 87 2 96 -11 136 -50 149 -41 15 -86 13 -124 -3z m106 -148 c0
-29 -28 -58 -57 -58 -47 0 -41 58 8 71 41 12 49 10 49 -13z"/>
<path d="M4970 4080 l0 -130 30 0 30 0 0 130 0 130 -30 0 -30 0 0 -130z"/>
<path d="M6840 4080 l0 -130 30 0 30 0 0 130 0 130 -30 0 -30 0 0 -130z"/>
<path d="M11660 4080 l0 -130 30 0 30 0 0 130 0 130 -30 0 -30 0 0 -130z"/>
<path d="M14080 4080 l0 -130 30 0 30 0 0 130 0 130 -30 0 -30 0 0 -130z"/>
<path d="M14630 4080 l0 -130 30 0 30 0 0 130 0 130 -30 0 -30 0 0 -130z"/>
<path d="M14750 4185 c0 -24 3 -25 60 -25 l61 0 -66 -79 c-43 -53 -65 -88 -65
-105 l0 -26 115 0 115 0 0 25 c0 24 -2 25 -71 25 l-71 0 66 79 c44 53 66 88
66 105 l0 26 -105 0 -105 0 0 -25z"/>
<path d="M20130 4080 l0 -130 30 0 30 0 0 130 0 130 -30 0 -30 0 0 -130z"/>
<path d="M22660 4080 l0 -130 30 0 30 0 0 130 0 130 -30 0 -30 0 0 -130z"/>
<path d="M1930 4153 c-63 -20 -90 -56 -90 -120 0 -69 52 -113 134 -113 77 0
115 28 130 98 13 58 -27 132 -71 132 -22 0 -14 -37 12 -54 25 -16 33 -54 19
-91 -6 -16 -54 -45 -74 -45 -6 0 -10 37 -10 100 0 106 -2 109 -50 93z m20
-118 c0 -41 -2 -75 -5 -75 -32 0 -75 48 -75 84 0 22 40 66 61 66 17 0 19 -8
19 -75z"/>
<path d="M1804 3846 c-56 -25 -81 -117 -50 -191 17 -40 42 -55 90 -55 41 0 70
31 87 94 22 86 32 108 54 118 53 24 96 -46 73 -118 -10 -28 -22 -43 -45 -53
-24 -11 -33 -21 -33 -38 0 -27 -1 -27 50 -7 118 47 96 264 -27 264 -63 0 -83
-25 -118 -152 -10 -37 -21 -59 -34 -63 -71 -22 -98 115 -30 153 18 11 29 25
29 40 0 25 -4 26 -46 8z"/>
<path d="M5490 3530 l0 -180 40 0 40 0 0 180 0 180 -40 0 -40 0 0 -180z"/>
<path d="M6190 3530 l0 -180 40 0 40 0 0 180 0 180 -40 0 -40 0 0 -180z"/>
<path d="M6362 3530 l62 -180 41 0 40 0 59 168 c33 92 62 173 64 180 3 10 -5
13 -33 10 l-38 -3 -41 -122 c-23 -67 -43 -124 -46 -127 -3 -3 -25 53 -49 124
l-42 130 -39 0 -39 0 61 -180z"/>
<path d="M12802 3530 l62 -180 41 0 40 0 59 168 c33 92 62 173 64 180 3 10 -5
13 -33 10 l-38 -3 -41 -122 c-23 -67 -43 -124 -46 -127 -3 -3 -25 53 -49 124
l-42 130 -39 0 -39 0 61 -180z"/>
<path d="M13692 3530 l62 -180 41 0 40 0 59 168 c33 92 62 173 64 180 3 10 -5
13 -33 10 l-38 -3 -41 -122 c-23 -67 -43 -124 -46 -127 -3 -3 -25 53 -49 124
l-42 130 -39 0 -39 0 61 -180z"/>
<path d="M14000 3530 l0 -180 40 0 40 0 0 180 0 180 -40 0 -40 0 0 -180z"/>
<path d="M14140 3530 l0 -180 40 0 40 0 0 180 0 180 -40 0 -40 0 0 -180z"/>
<path d="M14270 3530 l0 -180 40 0 40 0 0 180 0 180 -40 0 -40 0 0 -180z"/>
<path d="M21110 3530 l0 -180 40 0 40 0 0 180 0 180 -40 0 -40 0 0 -180z"/>
<path d="M21240 3704 c0 -3 23 -41 51 -85 l51 -79 -61 -95 -61 -95 44 0 c42 0
44 2 80 60 21 33 41 58 45 55 5 -2 23 -29 42 -60 32 -53 35 -55 77 -55 32 0
41 3 36 13 -4 6 -32 49 -61 95 l-53 82 55 85 55 85 -43 0 c-39 0 -44 -3 -70
-45 -16 -25 -32 -47 -37 -50 -4 -3 -22 18 -40 45 -29 46 -35 50 -71 50 -21 0
-39 -2 -39 -6z"/>
<path d="M22130 3704 c0 -3 23 -41 51 -85 l51 -79 -61 -95 -61 -95 44 0 c42 0
44 2 80 60 21 33 41 58 45 55 5 -2 23 -29 42 -60 32 -53 35 -55 77 -55 32 0
41 3 36 13 -4 6 -32 49 -61 95 l-53 82 55 85 55 85 -43 0 c-39 0 -44 -3 -70
-45 -16 -25 -32 -47 -37 -50 -4 -3 -22 18 -40 45 -29 46 -35 50 -71 50 -21 0
-39 -2 -39 -6z"/>
<path d="M5814 3606 c-26 -12 -52 -43 -42 -51 16 -12 58 -12 68 0 16 19 54 19
70 0 17 -21 5 -32 -43 -40 -52 -9 -93 -29 -101 -50 -14 -37 -6 -74 20 -94 31
-25 68 -27 108 -6 35 18 36 18 36 0 0 -11 11 -15 36 -15 32 0 35 2 28 23 -4
12 -7 51 -6 87 2 96 -11 136 -50 149 -41 15 -86 13 -124 -3z m106 -148 c0 -29
-28 -58 -57 -58 -47 0 -41 58 8 71 41 12 49 10 49 -13z"/>
<path d="M13294 3606 c-26 -12 -52 -43 -42 -51 16 -12 58 -12 68 0 16 19 54
19 70 0 17 -21 5 -32 -43 -40 -52 -9 -93 -29 -101 -50 -14 -37 -6 -74 20 -94
31 -25 68 -27 108 -6 35 18 36 18 36 0 0 -11 11 -15 36 -15 32 0 35 2 28 23
-4 12 -7 51 -6 87 2 96 -11 136 -50 149 -41 15 -86 13 -124 -3z m106 -148 c0
-29 -28 -58 -57 -58 -47 0 -41 58 8 71 41 12 49 10 49 -13z"/>
<path d="M21764 3606 c-26 -12 -52 -43 -42 -51 16 -12 58 -12 68 0 16 19 54
19 70 0 17 -21 5 -32 -43 -40 -52 -9 -93 -29 -101 -50 -14 -37 -6 -74 20 -94
31 -25 68 -27 108 -6 35 18 36 18 36 0 0 -11 11 -15 36 -15 32 0 35 2 28 23
-4 12 -7 51 -6 87 2 96 -11 136 -50 149 -41 15 -86 13 -124 -3z m106 -148 c0
-29 -28 -58 -57 -58 -47 0 -41 58 8 71 41 12 49 10 49 -13z"/>
<path d="M510 1675 c0 -13 1437 -15 12870 -15 11433 0 12870 2 12870 15 0 13
-1437 15 -12870 15 -11433 0 -12870 -2 -12870 -15z"/>
</g>
</svg>
